<?xml version="1.0" encoding="utf-8"?>
<!-- Generator: Adobe Illustrator 25.0.0, SVG Export Plug-In . SVG Version: 6.00 Build 0)  -->
<svg version="1.1" id="Layer_1" xmlns="http://www.w3.org/2000/svg" xmlns:xlink="http://www.w3.org/1999/xlink" x="0px" y="0px"
	 viewBox="0 0 367 419" style="enable-background:new 0 0 367 419;" xml:space="preserve">
<style type="text/css">
	.st0{fill-rule:evenodd;clip-rule:evenodd;fill:#E2D3F5;}
	.st1{fill-rule:evenodd;clip-rule:evenodd;fill:#FF7081;}
	.st2{fill-rule:evenodd;clip-rule:evenodd;fill:#7CABFF;}
	.st3{fill-rule:evenodd;clip-rule:evenodd;fill:#7E2E84;}
	.st4{fill-rule:evenodd;clip-rule:evenodd;fill:#FBC580;}
	.st5{fill-rule:evenodd;clip-rule:evenodd;fill:#241352;}
	.st6{fill-rule:evenodd;clip-rule:evenodd;fill:#FFAFA7;}
	.st7{filter:url(#Adobe_OpacityMaskFilter);}
	.st8{fill-rule:evenodd;clip-rule:evenodd;fill:#FFFFFF;}
	.st9{mask:url(#mask-2_1_);fill-rule:evenodd;clip-rule:evenodd;fill:#7E2E84;}
	.st10{fill-rule:evenodd;clip-rule:evenodd;fill:#E6E2EB;}
	.st11{fill-rule:evenodd;clip-rule:evenodd;fill:#241352;fill-opacity:0.2;}
	.st12{fill-rule:evenodd;clip-rule:evenodd;fill:#241352;fill-opacity:0.15;}
	.st13{fill-rule:evenodd;clip-rule:evenodd;fill:#6F35A5;}
	.st14{fill-rule:evenodd;clip-rule:evenodd;fill:#187F9D;}
	.st15{fill-rule:evenodd;clip-rule:evenodd;fill:#FF957E;}
	.st16{filter:url(#Adobe_OpacityMaskFilter_1_);}
	.st17{mask:url(#mask-4_1_);fill-rule:evenodd;clip-rule:evenodd;fill:#E2D3F5;}
	.st18{fill-rule:evenodd;clip-rule:evenodd;fill:#EF9437;}
	.st19{fill-rule:evenodd;clip-rule:evenodd;fill:#FCF2FC;}
	.st20{fill:#EF9437;}
	.st21{fill:#FFFFFF;}
</style>
<desc>Created with Sketch.</desc>
<g id="Page-1">
	<g id="_x30_1" transform="translate(-24.000000, -147.000000)">
		<g id="Group-217" transform="translate(24.000000, 147.000000)">
			<path id="Fill-1" class="st0" d="M150,118c0,58,47,105,105,105s105-47,105-105S313,13,255,13S150,60,150,118"/>
			<path id="Fill-3" class="st1" d="M264.6,17c3.3-0.9,6.8-1.3,10.2-0.7c3.4,0.7,6.6,2.6,8.3,5.4c1.9,3.3,1.8,7.3,1.5,11
				c-0.6,9.4-1.2,18.8-1.8,28.2c-0.2,2.6-0.3,5.3,0.7,7.7c1.1,2.4,3.7,4.4,6.4,3.9c1.4-0.3,2.5-1.1,3.8-1.6c1.3-0.5,3-0.5,3.8,0.6
				c0.5,0.6,0.5,1.5,0.4,2.3c-0.4,3.5-2.7,6.7-5.9,8.4c1.9-0.9,4.2,0.9,4.3,2.9c0,2-1.7,3.7-3.6,4.5c-1.9,0.7-4.1,0.7-6.2,0.7
				c1.7,0,3.1,1.8,2.9,3.4c-0.2,1.6-1.5,3-3.1,3.6c-1.6,0.6-3.4,0.7-5.1,0.5c-3.6-0.3-7.3-1.4-10.2-3.6c-5-3.8-7.1-10.3-7.1-16.4
				c-0.1-6.1,1.5-12.1,2.4-18.2c2.1-14,0.4-28.3-1.3-42.4c0.4-0.1,0.8-0.2,1.2-0.4"/>
			<path id="Fill-5" class="st2" d="M283,228.8c-4.1,3.8-5.6,9.8-1.7,14.4c3.7,4.3,10.7,5.2,15.3,1.8c11-8.3-0.5-23.6-12.4-20.5
				c-2.2,0.6-1.7,3.7,0.5,3.8c3.5,0.2,7.2,0.3,10,2.7c3,2.6,3.1,6.9,0.6,9.8c-6.5,7.8-17.8-3.7-10.9-10.6
				C285.2,229.2,283.9,227.9,283,228.8"/>
			<path id="Fill-7" class="st3" d="M164.3,188c-1.4-1.6-2.9-2.8-3.6-4.9c-1.4-4.2,1.3-6.3,4.4-7.9c3.2-1.6,5.7-3.5,6.6-7.3
				c1.5-6-3.3-13.4-9.3-11.6c-2,0.6-1.4,3.3,0,4.1c1.9,1.2,4.4,1.8,4.7,4.6c0.4,3.7-3,4.8-5.4,6.1c-2.6,1.5-4.5,3.7-5.3,6.7
				c-1.4,5.3,1.5,12.4,7.2,12.1C164.4,189.9,164.9,188.7,164.3,188"/>
			<path id="Fill-9" class="st4" d="M146,252.1c0.5,3.5,4.2,10.8,8,11.8c2,0.5,3.6-0.8,5.1-1.9c2.9-2,5.7-4,8.6-6
				c1-0.7,1.7-2.1,0.9-3.3c-2.5-3.8-5-7.7-7.6-11.5c-0.7-1-2.2-1.7-3.4-0.9c-3.1,2.2-6.6,4.2-9.4,6.8c-2,1.8,0.5,4.7,2.8,3.5
				c3.2-1.7,6.1-4.1,9.1-6.2c-1.1-0.3-2.2-0.6-3.4-0.9c2.5,3.8,5,7.7,7.6,11.5c0.3-1.1,0.6-2.2,0.9-3.3c-1.7,1.2-3.4,2.4-5.1,3.6
				c-1,0.7-4.2,3.7-5.3,3.6c-1-0.1-3-3.5-3.6-4.2c-1.2-1.4-2.3-2.8-3.9-3.8C146.6,250.5,145.9,251.3,146,252.1"/>
			<path id="Fill-11" class="st4" d="M314,96.1c0.5,3.5,4.2,10.8,8,11.8c2,0.5,3.6-0.8,5.1-1.9c2.9-2,5.7-4,8.6-6
				c1-0.7,1.7-2.1,0.9-3.3c-2.5-3.8-5-7.7-7.6-11.5c-0.7-1-2.2-1.7-3.4-0.9c-3.1,2.2-6.6,4.2-9.4,6.8c-2,1.8,0.5,4.7,2.8,3.5
				c3.2-1.7,6.1-4.1,9.1-6.2c-1.1-0.3-2.2-0.6-3.4-0.9c2.5,3.8,5,7.7,7.6,11.5c0.3-1.1,0.6-2.2,0.9-3.3c-1.7,1.2-3.4,2.4-5.1,3.6
				c-1,0.7-4.2,3.7-5.3,3.6c-1-0.1-3-3.5-3.6-4.2c-1.2-1.4-2.3-2.8-3.9-3.8C314.6,94.5,313.9,95.3,314,96.1"/>
			<path id="Fill-13" class="st1" d="M328.9,157.1c-6.3,3-12.4,6.2-18.6,9.5c-1.5,0.8-1.7,2.4-0.6,3.7c4.5,4.9,9,9.7,13.8,14.2
				c0.9,0.9,2.4,0.4,2.9-0.7c3-6.8,7.6-16.2,6.3-23.9c-0.3-2-3.2-2.9-4-0.7c-1.2,3.4-1.2,7.3-2,10.9c-0.9,4.1-2.1,8.3-3.8,12.1
				l3.3-0.4c-4.4-5.2-9.2-10-14-14.9c0,1.1-0.1,2.3-0.1,3.4c6-3.5,12-7.1,17.9-10.9C331.4,158.7,330.2,156.5,328.9,157.1"/>
			<path id="Fill-15" class="st1" d="M210.2,246.6c4.5-5.4,9-11.4,12.5-17.5c1.1-1.9-1.6-4.2-3-2.4c-4.4,5.5-8.2,12-11.6,18.3
				C207.5,246.3,209.2,247.7,210.2,246.6"/>
			<path id="Fill-17" class="st5" d="M365.9,62.4l-0.3-0.3c-1.5-1.3-4-1.6-5.4,0c-1.5,1.6-1.4,3.8,0,5.4c0.1,0.1,0.2,0.2,0.3,0.3
				c1.3,1.5,4.1,1.5,5.5,0C367.2,66.4,367.5,63.8,365.9,62.4"/>
			<path id="Fill-19" class="st5" d="M183.9,212.4c-0.1-0.1-0.2-0.2-0.3-0.3c-1.5-1.3-4-1.6-5.4,0c-1.5,1.6-1.4,3.8,0,5.4
				c0.1,0.1,0.2,0.2,0.3,0.3c1.4,1.5,4.1,1.5,5.5,0C185.2,216.4,185.5,213.8,183.9,212.4"/>
			<path id="Fill-21" class="st6" d="M239,85.7l-70.5,26.6l6.7-28.7L156.9,79c0,0-19.7,56-6,57.5c24,2.6,60.3-6.9,60.3-6.9L239,85.7
				z"/>
			<path id="Fill-23" class="st5" d="M214,146.9l0.2,54.7c17.8,22.1,79.7-6.5,79.7-6.5l0.7-22.4l1.4-53.3
				c-1.4-21.2-20.9-31.6-20.9-31.6c-8-4.1-20.3-6.4-31.4-5.8c-11.5,0.6-14.4,6.2-19.1,16.8C220.8,107.5,214,115.6,214,146.9"/>
			<path id="Fill-25" class="st6" d="M271.7,31.3l-0.8,11c0,0,9.3,1.3,6.7,9.8s-9,4.8-9,4.8s-1.6,21.8-23.9,14.9
				c-17.7-5.5-16.6-28.5-14.4-48.1c0.9-7.6,8-12.8,15.5-11.3l13.4,2.6C266.9,16.4,272.3,23.4,271.7,31.3"/>
			<path id="Fill-27" class="st6" d="M272,51l-6.1,32.4c-1.4,7.3-8.6,12-15.9,10.2c-6.7-1.6-11-8.1-9.8-14.9l3.3-18.6L272,51z"/>
			<path id="Fill-29" class="st5" d="M246,52.1c0,0,0.1,0.5-0.4,0.8c-0.5,0.3-1.2-0.4-1.4-1.5c-0.2-1.1-0.2-2.4-0.2-3.7
				c0-1.5,0.1-2.9,0.1-4.4C244.4,37,244.8,32,245,32c0.2,0,0.2,5.1,0,11.3c-0.1,1.5-0.1,2.9-0.2,4.4c-0.1,1.4-0.2,2.5,0,3.4
				c0.1,0.9,0.5,1.3,0.8,1.3C245.8,52.4,245.9,52,246,52.1"/>
			<path id="Fill-31" class="st5" d="M240,69c0.2-0.3,4.5,2.7,10.9,2.8c6.4,0.1,10.9-2.7,11.1-2.4c0.1,0.1-0.9,1-2.8,1.9
				c-1.9,0.9-4.9,1.7-8.3,1.7c-3.4-0.1-6.3-1-8.2-2C240.8,70,239.9,69.1,240,69"/>
			<path id="Fill-33" class="st5" d="M244,56.7c0.1-0.1,0.6,0.3,1.5,0.7c0.9,0.4,2.3,0.6,3.6,0.2c1.3-0.4,2.3-1.4,2.8-2.2
				c0.5-0.8,0.7-1.4,0.9-1.4c0.1,0,0.3,0.7-0.1,1.8c-0.4,1-1.4,2.4-3.2,3c-1.8,0.5-3.5,0-4.4-0.6C244.2,57.5,243.9,56.8,244,56.7"/>
			<path id="Fill-35" class="st5" d="M272,51.8c0-0.2,0.4-0.3,0.7-0.6c0.2-0.2,0.3-0.4,0.4-0.7c0.1-0.3,0-0.6-0.2-0.6
				c-0.1-0.1-0.3,0-0.3,0l-0.7-0.5c0.6-1.5,1.1-2.5,1.3-2.4c0.2,0.1-0.1,1.3-0.5,2.8l-0.7-0.5c0.3-0.6,0.9-0.7,1.3-0.5
				c0.3,0.1,0.6,0.5,0.7,0.9c0.1,0.4,0,0.8,0,1.1c-0.2,0.6-0.6,1-0.9,1.1C272.4,52.1,272,51.9,272,51.8"/>
			<path id="Fill-37" class="st5" d="M257,31.8c-0.1-0.3,0.9-0.8,2.2-0.5c1.3,0.3,1.9,1.3,1.7,1.4c-0.2,0.2-1-0.2-2-0.4
				C258,32.1,257.1,32.1,257,31.8"/>
			<path id="Fill-39" class="st5" d="M237,28.2c-0.2-0.2,1-0.9,2.6-0.8c1.6,0.1,2.6,0.9,2.4,1.2c-0.2,0.2-1.2,0-2.5-0.1
				C238.2,28.3,237.2,28.4,237,28.2"/>
			<path id="Fill-41" class="st1" d="M270.3,42.4c-6.1-6.1-7.9-16.3-9.5-24.9c-5.6,4.2-13.4,5.3-19.9,2.7c-2,2.5-4.4,4.6-7.1,6.4
				c-0.8,0.5-1.6,1-2.5,0.7c-1-0.3-1.5-1.5-1.7-2.6c-0.8-3.4-0.8-7.1,0.4-10.4s3.6-6.2,6.8-7.5c3.4-1.4,7.2-0.8,10.8,0.2
				c5.3,1.4,10.5,3.6,15.2,6.5c4.7,2.8,9.1,6.5,11.1,11.7c2,5.2,2,15.2-2.8,17.8"/>
			<path id="Fill-43" class="st5" d="M235.4,86.2c6.2-2.4-41.4,14.6-41.4,14.6l4.8,31.2l18.1-5.7L235.4,86.2z"/>
			<path id="Fill-45" class="st6" d="M172.8,85c0,0,12.1-17.1,10-17.1c-2.2,0-3.3,3.2-7.5,5.4c0,0,6.7-21.4,4.6-20.9
				c-2.1,0.4-7,14.2-7.4,14.2s4.3-15.4,2.5-15.6c-1.7-0.2-5.9,14.1-5.9,14.1s2.9-13.6,1.1-13.9c-1.8-0.3-4.5,12.2-4.5,12.2
				s2.2-10.5,0.5-10.8c-1-0.2-10.2,25.9-10.2,25.9C156.2,78.6,172.8,85,172.8,85"/>
			<path id="Fill-47" class="st5" d="M267.5,145c-0.1,0-0.3-0.9-0.5-2.4c-0.3-1.6-0.6-3.9-1-6.7c-0.8-5.7-1.8-13.5-2.8-22.2
				c-0.2-2.2-0.4-4.4,0-6.5c0.3-2.1,1.3-4.1,2.6-5.7c2.7-3.1,6.3-4.6,9.3-5.2c3.1-0.6,5.6-0.4,7.3-0.2c1.7,0.2,2.6,0.5,2.6,0.5
				c0,0.1-1,0-2.6-0.1c-1.7,0-4.1-0.1-7,0.6c-2.8,0.6-6.2,2.1-8.6,5c-1.2,1.4-2,3.2-2.3,5.1c-0.3,1.9-0.2,4,0,6.2
				c1,8.6,1.8,16.5,2.4,22.2c0.3,2.8,0.5,5.1,0.6,6.7C267.6,144.1,267.6,145,267.5,145"/>
			<path id="Fill-49" class="st5" d="M265,142.1c0-0.3,8.4,0.2,18.6,1.3c10.2,1.1,18.5,2.2,18.4,2.5c0,0.3-8.3-0.2-18.6-1.3
				C273.2,143.6,265,142.4,265,142.1"/>
			<g id="Group-53" transform="translate(117.000000, 0.000000)">
				<g id="Clip-52">
				</g>
				<defs>
					<filter id="Adobe_OpacityMaskFilter" filterUnits="userSpaceOnUse" x="0" y="0.3" width="93.4" height="53.8">
						<feColorMatrix  type="matrix" values="1 0 0 0 0  0 1 0 0 0  0 0 1 0 0  0 0 0 1 0"/>
					</filter>
				</defs>
				<mask maskUnits="userSpaceOnUse" x="0" y="0.3" width="93.4" height="53.8" id="mask-2_1_">
					<g class="st7">
						<polygon id="path-1_1_" class="st8" points="0,0.3 93.4,0.3 93.4,54.1 0,54.1 						"/>
					</g>
				</mask>
				<polygon id="Fill-51" class="st9" points="93.4,3 93.4,40 69,40 68.2,54.1 53.8,39.2 0,39.2 4.8,0.3 				"/>
			</g>
			<path id="Fill-54" class="st10" d="M203.8,13.8c-23.8-0.4-47.7-0.5-71.5-0.1c-0.4,0-0.4,0.6,0,0.6c23.8,0.4,47.7,0.3,71.5-0.1
				C204.1,14.2,204.1,13.8,203.8,13.8"/>
			<path id="Fill-56" class="st10" d="M203.8,21.8c-23.8-0.4-47.7-0.5-71.5-0.1c-0.4,0-0.4,0.6,0,0.6c23.8,0.4,47.7,0.3,71.5-0.1
				C204.1,22.2,204.1,21.8,203.8,21.8"/>
			<path id="Fill-58" class="st10" d="M200.8,29.8c-14.4-0.4-29.1-0.5-43.5-0.1c-0.4,0-0.4,0.6,0,0.6c14.4,0.4,29.1,0.3,43.5-0.1
				C201.1,30.2,201.1,29.8,200.8,29.8"/>
			<path id="Fill-60" class="st5" d="M237.7,37.8c-0.3,0.1-0.7-0.1-1-0.5c-0.4-0.4-0.7-0.7-0.6-1c0.1-0.3,0.7-0.3,1.3,0.2
				S238,37.7,237.7,37.8"/>
			<path id="Fill-62" class="st5" d="M256.8,39c-0.3,0.1-0.7-0.3-1.2-0.8c-0.4-0.5-0.8-1-0.6-1.1c0.2-0.2,0.9,0.1,1.4,0.6
				C257,38.3,257.1,38.9,256.8,39"/>
			<path id="Fill-64" class="st11" d="M252.8,55.8c0.5,1.9,0,3.7-1,4.1c-1,0.4-2.2-0.8-2.7-2.7c-0.5-1.9,0-3.7,1-4.1
				C251.2,52.7,252.4,53.9,252.8,55.8"/>
			<path id="Fill-66" class="st12" d="M264,44.5c0,1.9-2.2,3.5-5,3.5s-5-1.5-5-3.5c0-1.9,2.2-3.5,5-3.5C261.7,41,264,42.5,264,44.5"
				/>
			<path id="Fill-68" class="st12" d="M242,45.5c0,1.9-2.2,3.5-5,3.5c-2.8,0-5-1.5-5-3.5c0-1.9,2.2-3.5,5-3.5
				C239.7,42,242,43.5,242,45.5"/>
			<path id="Fill-70" class="st13" d="M272.3,28c-0.1-0.1,0.3-0.7-0.1-1.7c-0.3-1-1.2-2.4-1.9-4c-1.5-3.2-2.5-6-2.2-6.2
				c0.3-0.2,1.7,2.3,3.3,5.6c0.7,1.7,1.5,3.1,1.7,4.4c0.1,0.7,0,1.3-0.2,1.6C272.5,28,272.3,28,272.3,28"/>
			<polygon id="Fill-72" class="st14" points="219.2,133.8 215,188.4 273,196 269.1,133 			"/>
			<polyline id="Fill-74" class="st14" points="222,96.4 222,139 229,136.6 229,88 222,90 			"/>
			<path id="Fill-76" class="st14" d="M275.7,90c0,0-26,3.3-18.3,45.3l6.5,0.7c0,0-7.3-39.5,17.1-42.3L275.7,90z"/>
			<path id="Fill-78" class="st6" d="M268.7,138c0,0,8.8,52.1-3.6,50.9c-40.9-4.2-65.3-4.8-65.3-4.8l-6.8,14.1
				c-0.2,2.4,77.5,24.7,89.9,17.3c8.8-5.2,22.8-19.2,16.5-61.1l-1.5-14L268.7,138z"/>
			<path id="Fill-80" class="st5" d="M290.5,103.9c0,0,9.4,9.2,11.5,44.1l-36.5-4.1C265.5,143.9,259.4,84.5,290.5,103.9"/>
			<path id="Fill-82" class="st6" d="M204.4,184.6c0,0-20.1-6.3-19.4-4.2c0.7,2.1,4.1,2.1,7.5,5.5c0,0-22.5,0.2-21.4,2.1
				c1.1,1.8,15.7,2.3,15.8,2.6c0.1,0.3-16,0.7-15.7,2.4c0.4,1.7,15.3,1.3,15.3,1.3s-13.9,1.5-13.6,3.3c0.3,1.8,13.1,0.5,13.1,0.5
				s-10.7,1.2-10.4,2.9c0.2,1,31.4,1.2,31.4,2C207,203.4,204.4,184.6,204.4,184.6"/>
			<path id="Fill-84" class="st5" d="M229.3,132c0.2,0,0.5,0.9,0.7,2.7c0.1,0.9,0,2-0.5,3.1c-0.5,1.1-1.6,2.2-3.2,2.2
				c-1.5,0-2.7-1-3.3-2c-0.7-1.1-0.8-2.1-0.9-3c-0.1-1.7,0.1-2.7,0.3-2.7c0.2,0,0.3,1,0.6,2.6c0.2,0.8,0.4,1.7,1,2.4
				c0.5,0.7,1.4,1.4,2.3,1.4c0.9,0,1.7-0.7,2.2-1.5c0.5-0.8,0.6-1.7,0.7-2.5C229.2,133.1,229.1,132,229.3,132"/>
			<path id="Fill-86" class="st5" d="M226.5,134.4c0.1,0.1,0,0.3,0.1,0.5c0.1,0.3,0.2,0.3,0.4,0.2c0.2-0.2,0.2-0.3,0-0.5
				C226.9,134.4,226.7,134.4,226.5,134.4c0-0.1,0.2-0.5,0.8-0.4c0.2,0.1,0.5,0.2,0.7,0.7c0.1,0.4-0.1,0.9-0.4,1.1
				c-0.3,0.2-0.9,0.3-1.2,0c-0.3-0.3-0.4-0.6-0.3-0.9C226.1,134.4,226.5,134.3,226.5,134.4"/>
			<path id="Fill-88" class="st5" d="M263.5,133c0.1-0.1,0.7,0.5,0.5,1.5c-0.1,0.9-1.2,2.4-3.3,2.5c-2.1,0-3.3-1.4-3.6-2.3
				c-0.3-1,0.2-1.6,0.3-1.5c0.2,0,0.2,0.6,0.6,1.2c0.4,0.6,1.4,1.4,2.6,1.4c1.2,0,2.1-0.9,2.4-1.6
				C263.4,133.6,263.3,133.1,263.5,133"/>
			<path id="Fill-90" class="st5" d="M261.1,129.7c-0.1-0.1,0.1-0.7,0.7-0.7c0.3,0,0.6,0.2,0.9,0.7c0.3,0.6,0.3,1.7,0,2.3
				c-0.2,0.7-0.8,1.2-1.3,0.8c-0.5-0.5-0.5-1.3-0.5-1.7c0-0.5,0.2-0.9,0.4-1c0.2-0.1,0.3,0,0.3,0.1c0,0.2-0.2,0.5-0.1,0.9
				c0.1,0.5,0.2,0.6,0.4,0.1c0.2-0.5,0-0.9-0.3-1.2C261.5,129.8,261.2,129.9,261.1,129.7"/>
			<path id="Fill-110" class="st15" d="M259.3,263.1c1.3-6.8,2.4-14.2,2.7-21.1c0.1-2.2-3-2.7-3.4-0.5c-1.1,6.9-1.5,14.3-1.6,21.3
				C257,264.2,259,264.5,259.3,263.1"/>
			<path id="Fill-112" class="st5" d="M293.9,285.4c-0.1-0.1-0.2-0.2-0.3-0.3c-1.5-1.3-4-1.6-5.4,0c-1.5,1.6-1.4,3.8,0,5.4l0.3,0.3
				c1.4,1.5,4.1,1.5,5.5,0C295.2,289.4,295.5,286.8,293.9,285.4"/>
			<g id="Group-116" transform="translate(4.000000, 209.000000)">
				<g id="Clip-115">
				</g>
				<defs>
					<filter id="Adobe_OpacityMaskFilter_1_" filterUnits="userSpaceOnUse" x="1" y="0.6" width="209.2" height="209.4">
						<feColorMatrix  type="matrix" values="1 0 0 0 0  0 1 0 0 0  0 0 1 0 0  0 0 0 1 0"/>
					</filter>
				</defs>
				<mask maskUnits="userSpaceOnUse" x="1" y="0.6" width="209.2" height="209.4" id="mask-4_1_">
					<g class="st16">
						<polygon id="path-3_1_" class="st8" points="1,0.6 210.2,0.6 210.2,210 1,210 						"/>
					</g>
				</mask>
				<path id="Fill-114" class="st17" d="M210.2,105.3c0,57.8-46.8,104.7-104.6,104.7C47.8,210,1,163.1,1,105.3S47.8,0.6,105.6,0.6
					C163.4,0.6,210.2,47.5,210.2,105.3"/>
			</g>
			<path id="Fill-117" class="st6" d="M125,278.7l70.5,26.6l-6.7-28.7l18.3-4.7c0,0,19.7,56,6,57.5c-24,2.6-60.3-6.9-60.3-6.9
				L125,278.7z"/>
			<path id="Fill-119" class="st18" d="M149,341.9l-0.2,54.7c-17.8,22.1-79.7-6.5-79.7-6.5l-0.7-22.4L67,314.5
				c1.4-21.2,20.9-31.6,20.9-31.6c8-4.1,20.3-6.4,31.4-5.8c11.5,0.6,14.4,6.2,19.1,16.8C142.2,302.5,149,310.6,149,341.9"/>
			<path id="Fill-121" class="st6" d="M94.3,331c0,0-8.8,52.1,3.6,50.9c40.9-4.2,65.3-4.8,65.3-4.8l6.8,14.1
				c0.2,2.4-77.5,24.7-89.9,17.3c-8.8-5.2-22.8-19.2-16.5-61.1l1.5-14L94.3,331z"/>
			<path id="Fill-123" class="st18" d="M71.5,297.9c0,0-9.4,9.2-11.5,44.1l36.5-4.1C96.5,337.9,102.6,278.5,71.5,297.9"/>
			<path id="Fill-125" class="st6" d="M89.3,225.3l0.8,11c0,0-9.3,1.3-6.7,9.8c2.7,8.5,9,4.8,9,4.8s1.6,21.8,23.9,14.9
				c17.7-5.5,16.6-28.5,14.4-48.1c-0.9-7.6-8-12.8-15.5-11.3l-13.4,2.6C94.1,210.4,88.7,217.4,89.3,225.3"/>
			<path id="Fill-127" class="st6" d="M91,244l6.1,32.4c1.4,7.3,8.6,12,15.9,10.2c6.7-1.6,11-8.1,9.8-14.9l-3.3-18.6L91,244z"/>
			<path id="Fill-129" class="st5" d="M116,245.1c0.1-0.1,0.2,0.3,0.4,0.3c0.3,0,0.7-0.4,0.8-1.3c0.1-0.9,0.1-2.1,0-3.4
				c-0.1-1.5-0.1-2.9-0.2-4.4c-0.3-6.2-0.3-11.3,0-11.3c0.2,0,0.6,5,0.9,11.3c0,1.5,0.1,2.9,0.1,4.4c0,1.3,0.1,2.7-0.2,3.7
				c-0.2,1.1-0.9,1.8-1.4,1.5C115.9,245.6,116,245.1,116,245.1"/>
			<path id="Fill-131" class="st5" d="M124,264c0.1,0.1-0.8,1-2.7,2c-1.9,1-4.8,1.9-8.2,2c-3.4,0.1-6.4-0.8-8.3-1.7
				c-1.9-0.9-2.9-1.8-2.8-1.9c0.2-0.3,4.7,2.5,11.1,2.4C119.4,266.7,123.8,263.7,124,264"/>
			<path id="Fill-133" class="st5" d="M118,248.7c0.1,0.1-0.2,0.8-1.1,1.4c-0.9,0.6-2.6,1.2-4.4,0.6c-1.8-0.6-2.8-2-3.2-3
				c-0.4-1.1-0.2-1.8-0.1-1.8c0.2,0,0.3,0.6,0.8,1.4c0.5,0.8,1.5,1.8,2.8,2.2c1.4,0.4,2.7,0.1,3.6-0.2
				C117.3,249,117.8,248.6,118,248.7"/>
			<path id="Fill-135" class="st5" d="M89,246.8c0,0.1-0.4,0.4-1,0.1c-0.3-0.1-0.7-0.5-0.9-1.1c-0.1-0.3-0.1-0.7,0-1.1
				c0.1-0.4,0.3-0.8,0.7-0.9c0.4-0.2,1-0.1,1.3,0.5l-0.7,0.5c-0.5-1.5-0.7-2.7-0.5-2.8c0.2-0.1,0.7,0.9,1.3,2.4l-0.7,0.5
				c0,0-0.1-0.1-0.3,0c-0.2,0.1-0.2,0.3-0.2,0.6c0.1,0.3,0.2,0.5,0.4,0.7C88.6,246.5,89,246.6,89,246.8"/>
			<path id="Fill-137" class="st5" d="M107,224.8c-0.1,0.3-1,0.3-2,0.5c-1,0.2-1.8,0.6-2,0.4c-0.2-0.2,0.4-1.1,1.7-1.4
				C106.1,224,107.1,224.5,107,224.8"/>
			<path id="Fill-139" class="st5" d="M126,221.2c-0.1,0.3-1.2,0.1-2.5,0.2c-1.3,0.1-2.3,0.4-2.5,0.1c-0.2-0.2,0.8-1,2.4-1.2
				C125,220.3,126.1,220.9,126,221.2"/>
			<path id="Fill-141" class="st5" d="M92.7,235.4c6.1-6.1,7.9-16.3,9.5-24.9c5.6,4.2,13.4,5.3,19.9,2.7c2,2.5,4.4,4.6,7.1,6.4
				c0.8,0.5,1.6,1,2.5,0.7c1-0.3,1.5-1.5,1.7-2.6c0.8-3.4,0.8-7.1-0.4-10.4c-1.2-3.3-3.6-6.2-6.8-7.5c-3.4-1.4-7.2-0.8-10.8,0.2
				c-5.3,1.4-10.5,3.6-15.2,6.5c-4.7,2.8-9.1,6.5-11.1,11.7c-2,5.2-2,15.2,2.8,17.9"/>
			<path id="Fill-143" class="st18" d="M127.6,279.2c-6.2-2.4,41.4,14.6,41.4,14.6l-4.8,31.2l-18.1-5.7L127.6,279.2z"/>
			<path id="Fill-145" class="st6" d="M158.6,376.6c0,0,20.1-6.3,19.4-4.2c-0.7,2.1-4.1,2.1-7.5,5.5c0,0,22.5,0.2,21.4,2.1
				c-1.1,1.8-15.7,2.3-15.8,2.6c-0.1,0.3,16,0.7,15.7,2.4c-0.4,1.7-15.3,1.3-15.3,1.3s13.9,1.5,13.6,3.3c-0.3,1.8-13.1,0.5-13.1,0.5
				s10.7,1.2,10.4,2.9c-0.2,1-31.3,1.2-31.4,2C156,395.4,158.6,376.6,158.6,376.6"/>
			<path id="Fill-147" class="st6" d="M189.2,279c0,0-12.1-17.1-10-17.1c2.2,0,3.3,3.2,7.5,5.4c0,0-6.7-21.4-4.6-20.9
				c2.1,0.4,7,14.2,7.4,14.2c0.3,0-4.3-15.4-2.5-15.6c1.7-0.2,5.9,14.1,5.9,14.1s-2.9-13.6-1.1-13.9c1.8-0.3,4.5,12.2,4.5,12.2
				s-2.2-10.5-0.5-10.8c1-0.2,10.2,25.9,10.2,25.9C205.8,272.6,189.2,279,189.2,279"/>
			<path id="Fill-149" class="st19" d="M78.4,325c0.1,0,0.6,0.7,0.6,2.2c0,0.7-0.3,1.7-1.3,2.4c-0.5,0.3-1.1,0.5-1.9,0.4
				c-0.7-0.1-1.2-0.6-1.6-1c-0.8-0.8-1.3-1.3-2.1-1.4c-0.8-0.1-1.4,0.1-1.9,0.5c-0.9,0.8-0.9,1.7-1.1,1.7c-0.1,0.1-0.6-1,0.4-2.2
				c0.5-0.6,1.5-1.1,2.7-1c0.6,0,1.2,0.2,1.7,0.6c0.5,0.3,0.8,0.8,1.2,1.1c1.2,1.6,2.9,0,3-1.1C78.3,325.9,78.2,325,78.4,325"/>
			<path id="Fill-151" class="st19" d="M89,316.1c-0.1-0.1,0.4-0.9,1.7-1.7c0.6-0.4,1.7-0.7,2.8-0.2c0.5,0.2,1.1,0.7,1.3,1.3
				c0.2,0.7,0.1,1.3,0,1.9c-0.4,1.1-0.6,1.8-0.2,2.5c0.3,0.7,0.9,1.1,1.4,1.3c1.2,0.3,2-0.2,2.1,0c0.1,0.1-0.6,1-2.2,0.8
				c-0.8-0.1-1.8-0.7-2.3-1.6c-0.2-0.5-0.4-1.1-0.3-1.7c0.1-0.6,0.3-1.1,0.4-1.6c0.8-1.9-1.4-2.4-2.5-1.8
				C89.9,315.7,89.1,316.3,89,316.1"/>
			<path id="Fill-153" class="st19" d="M89,293.1c-0.1-0.1,0.4-0.9,1.7-1.7c0.6-0.4,1.7-0.7,2.8-0.2c0.5,0.2,1.1,0.6,1.3,1.3
				c0.2,0.7,0.1,1.3,0,1.9c-0.4,1.1-0.6,1.8-0.2,2.5c0.3,0.7,0.9,1.1,1.4,1.3c1.2,0.3,2-0.2,2.1,0c0.1,0.1-0.6,1-2.2,0.8
				c-0.8-0.1-1.8-0.7-2.3-1.6c-0.2-0.5-0.4-1.1-0.3-1.7c0.1-0.6,0.3-1.1,0.4-1.6c0.8-1.9-1.4-2.4-2.5-1.8
				C89.9,292.7,89.1,293.3,89,293.1"/>
			<path id="Fill-155" class="st19" d="M110.5,323c-0.1,0.1-0.9-0.3-1.9-1.4c-0.4-0.6-0.9-1.6-0.5-2.6c0.2-0.5,0.6-1.1,1.2-1.4
				c0.7-0.3,1.4-0.2,1.9-0.1c1.2,0.3,1.9,0.4,2.6,0c0.7-0.3,1.1-0.9,1.2-1.5c0.2-1.1-0.4-1.9-0.2-2c0.1-0.1,1.1,0.5,1.1,2.1
				c0,0.8-0.5,1.7-1.5,2.3c-0.5,0.3-1.1,0.5-1.7,0.4c-0.6,0-1.2-0.2-1.7-0.2c-2-0.6-2.4,1.6-1.7,2.5
				C110,322.2,110.7,322.9,110.5,323"/>
			<path id="Fill-157" class="st19" d="M126,347c0.1,0.1-0.4,0.9-1.9,1.7c-0.7,0.4-1.9,0.6-2.9,0c-0.5-0.3-1.1-0.8-1.3-1.5
				c-0.2-0.7,0-1.5,0.2-2c0.5-1.2,0.7-1.9,0.4-2.7c-0.2-0.8-0.8-1.3-1.4-1.5c-1.2-0.5-2.1,0-2.2-0.1c-0.1-0.1,0.7-1.1,2.4-0.7
				c0.8,0.2,1.8,0.9,2.2,2c0.2,0.5,0.3,1.2,0.2,1.9c-0.1,0.6-0.4,1.2-0.5,1.7c-1,2,1.3,2.7,2.5,2.2C125.1,347.3,125.9,346.8,126,347
				"/>
			<path id="Fill-159" class="st19" d="M146,309c0.1,0.1-0.4,0.9-1.9,1.7c-0.7,0.4-1.9,0.6-2.9,0c-0.5-0.3-1.1-0.8-1.3-1.5
				c-0.2-0.7,0-1.5,0.2-2c0.5-1.2,0.7-1.9,0.4-2.7c-0.2-0.8-0.8-1.3-1.4-1.5c-1.2-0.5-2.1,0-2.2-0.1c-0.1-0.1,0.7-1.1,2.4-0.7
				c0.8,0.2,1.8,0.9,2.2,2c0.2,0.5,0.3,1.2,0.2,1.9c-0.1,0.6-0.4,1.2-0.5,1.7c-1,2,1.3,2.7,2.5,2.2C145.1,309.3,145.9,308.8,146,309
				"/>
			<path id="Fill-161" class="st19" d="M157.5,303c0.1-0.1,1.1,0.1,2.4,1.1c0.6,0.5,1.3,1.5,1.1,2.6c-0.1,0.6-0.4,1.2-1.1,1.6
				c-0.7,0.4-1.4,0.5-2.1,0.5c-1.3-0.1-2.1,0-2.8,0.5c-0.7,0.5-1,1.1-1,1.7c0,1.2,0.8,1.8,0.6,2c0,0.1-1.3-0.3-1.6-1.9
				c-0.1-0.8,0.2-1.9,1.1-2.6c0.5-0.4,1.1-0.7,1.8-0.8c0.7-0.1,1.3-0.1,1.9-0.1c2.3,0.2,2.2-2,1.3-2.9
				C158.2,303.7,157.4,303.2,157.5,303"/>
			<path id="Fill-163" class="st19" d="M106,367c0.1,0.1-0.4,0.9-1.9,1.7c-0.7,0.4-1.9,0.6-2.9,0c-0.5-0.3-1.1-0.8-1.3-1.5
				c-0.2-0.7,0-1.5,0.2-2c0.5-1.2,0.7-1.9,0.4-2.7c-0.2-0.8-0.8-1.3-1.4-1.5c-1.2-0.5-2.1,0-2.2-0.1c-0.1-0.1,0.7-1.1,2.4-0.7
				c0.8,0.2,1.8,0.9,2.2,2c0.2,0.5,0.3,1.2,0.2,1.9c-0.1,0.6-0.4,1.2-0.5,1.7c-1,2,1.3,2.7,2.5,2.2C105.1,367.3,105.9,366.8,106,367
				"/>
			<path id="Fill-165" class="st19" d="M134,329c-0.1,0.1-0.8-0.4-1.6-1.7c-0.4-0.7-0.6-1.8-0.1-2.9c0.2-0.5,0.7-1.1,1.3-1.3
				c0.7-0.2,1.3-0.1,1.8,0.1c1.1,0.4,1.7,0.6,2.4,0.3c0.7-0.3,1.1-0.8,1.3-1.4c0.4-1.2-0.1-2,0-2.1c0.1-0.1,1,0.6,0.8,2.3
				c-0.1,0.8-0.7,1.8-1.7,2.3c-0.5,0.2-1.1,0.4-1.7,0.3c-0.6-0.1-1.1-0.3-1.5-0.4c-1.8-0.9-2.4,1.4-1.9,2.5
				C133.6,328.1,134.1,328.9,134,329"/>
			<path id="Fill-167" class="st19" d="M140,349c-0.1,0.1-0.8-0.4-1.6-1.7c-0.4-0.7-0.6-1.8-0.1-2.9c0.2-0.5,0.7-1.1,1.3-1.3
				c0.7-0.2,1.3-0.1,1.8,0.1c1.1,0.4,1.7,0.6,2.4,0.3c0.7-0.3,1.1-0.8,1.3-1.4c0.4-1.2-0.1-2,0-2.1c0.1-0.1,1,0.6,0.8,2.3
				c-0.1,0.8-0.7,1.8-1.7,2.3c-0.5,0.2-1.1,0.4-1.7,0.3c-0.6-0.1-1.1-0.3-1.5-0.4c-1.8-0.9-2.4,1.4-1.9,2.5
				C139.6,348.1,140.1,348.9,140,349"/>
			<path id="Fill-169" class="st19" d="M100.2,342c-0.1,0-0.4-0.9-0.1-2.5c0.2-0.8,0.7-1.8,1.7-2.3c0.5-0.2,1.2-0.3,1.8,0
				c0.6,0.3,1,0.9,1.3,1.4c0.5,1.1,0.9,1.7,1.6,2c0.7,0.3,1.4,0.2,1.9-0.1c1-0.6,1.2-1.6,1.4-1.6c0.1,0,0.3,1.2-0.9,2.3
				c-0.6,0.5-1.7,0.8-2.7,0.5c-0.5-0.2-1-0.5-1.4-1c-0.4-0.5-0.6-1-0.9-1.5c-0.8-2-2.7-0.7-3,0.5C100.5,341,100.4,342,100.2,342"/>
			<path id="Fill-171" class="st19" d="M136.2,366c-0.1,0-0.4-0.9-0.1-2.5c0.2-0.8,0.7-1.8,1.7-2.3c0.5-0.2,1.2-0.3,1.8,0
				c0.6,0.3,1,0.9,1.3,1.4c0.5,1.1,0.9,1.7,1.6,2c0.7,0.3,1.4,0.2,1.9-0.1c1-0.6,1.2-1.6,1.4-1.6c0.1,0,0.3,1.2-0.9,2.3
				c-0.6,0.5-1.7,0.9-2.7,0.5c-0.5-0.2-1-0.5-1.4-1c-0.4-0.5-0.6-1-0.9-1.5c-0.8-2-2.7-0.7-3,0.5C136.5,365,136.4,366,136.2,366"/>
			<path id="Fill-173" class="st19" d="M134.2,292c-0.1,0-0.4-0.9-0.1-2.5c0.2-0.8,0.7-1.8,1.7-2.3c0.5-0.2,1.2-0.3,1.8,0
				c0.6,0.3,1,0.9,1.3,1.4c0.5,1.1,0.9,1.7,1.6,2c0.7,0.3,1.4,0.2,1.9-0.1c1-0.6,1.2-1.6,1.4-1.6c0.1,0,0.3,1.2-0.9,2.3
				c-0.6,0.5-1.7,0.9-2.7,0.5c-0.5-0.2-1-0.5-1.4-1c-0.4-0.5-0.6-1-0.9-1.5c-0.8-2-2.7-0.7-3,0.5C134.5,291.1,134.4,292,134.2,292"
				/>
			<path id="Fill-175" class="st19" d="M121.8,376c-0.1,0.1-1,0-2.4-0.8c-0.6-0.4-1.4-1.3-1.4-2.4c0-0.5,0.2-1.2,0.8-1.7
				c0.6-0.5,1.3-0.6,1.9-0.7c1.2-0.1,2-0.2,2.6-0.7c0.6-0.5,0.8-1.2,0.7-1.8c-0.2-1.2-1-1.7-0.9-1.8c0-0.1,1.3,0.1,1.8,1.7
				c0.2,0.8,0.1,1.8-0.7,2.7c-0.4,0.4-0.9,0.8-1.6,0.9c-0.6,0.2-1.2,0.2-1.8,0.3c-2.2,0-1.8,2.2-0.8,2.9
				C121,375.4,121.9,375.8,121.8,376"/>
			<path id="Fill-177" class="st19" d="M79.2,303c0.1-0.1,0.9,0.5,1.5,1.8c0.3,0.7,0.5,1.7-0.1,2.7c-0.3,0.5-0.8,1-1.6,1.1
				c-0.7,0.1-1.4-0.1-2-0.3c-1.1-0.5-1.8-0.8-2.6-0.5c-0.8,0.2-1.3,0.7-1.5,1.2c-0.5,1.1-0.1,1.9-0.3,2c-0.1,0.1-1-0.7-0.6-2.3
				c0.2-0.8,0.9-1.6,2-2c0.5-0.2,1.2-0.2,1.8-0.1c0.6,0.1,1.1,0.4,1.6,0.6c1.9,1,2.7-1.1,2.3-2.2C79.5,303.9,79,303.1,79.2,303"/>
			<path id="Fill-179" class="st19" d="M121.2,296c0.1-0.1,0.9,0.5,1.5,1.8c0.3,0.7,0.5,1.7-0.1,2.7c-0.3,0.5-0.8,1-1.6,1.1
				c-0.7,0.1-1.4-0.1-1.9-0.3c-1.1-0.5-1.8-0.8-2.6-0.5c-0.8,0.2-1.3,0.7-1.5,1.2c-0.5,1.1-0.1,1.9-0.3,2c-0.1,0.1-1-0.7-0.6-2.3
				c0.2-0.8,0.9-1.6,2-2c0.5-0.2,1.2-0.2,1.8-0.1c0.6,0.1,1.1,0.4,1.6,0.6c1.9,1,2.7-1.1,2.3-2.2C121.5,296.9,121,296.1,121.2,296"
				/>
			<path id="Fill-181" class="st5" d="M96.5,338c-0.1,0-0.1-0.9,0-2.5c0.1-1.6,0.3-3.9,0.6-6.7c0.5-5.7,1.4-13.5,2.4-22.2
				c0.2-2.1,0.3-4.2,0-6.2c-0.3-2-1.1-3.7-2.3-5.1c-2.4-2.9-5.7-4.4-8.6-5c-2.9-0.7-5.3-0.6-7-0.6c-1.7,0.1-2.6,0.2-2.6,0.1
				c0-0.1,0.9-0.3,2.6-0.5c1.7-0.2,4.2-0.4,7.3,0.2c3,0.6,6.7,2.1,9.3,5.2c1.3,1.5,2.3,3.5,2.6,5.7c0.4,2.1,0.2,4.3,0,6.5
				c-1,8.7-2,16.5-2.8,22.2c-0.4,2.8-0.7,5.1-1,6.7C96.8,337.1,96.6,338,96.5,338"/>
			<path id="Fill-183" class="st5" d="M97,337.1c0,0.3-8.2,1.5-18.4,2.5c-10.2,1.1-18.5,1.6-18.6,1.3c0-0.3,8.2-1.5,18.4-2.5
				C88.6,337.3,97,336.8,97,337.1"/>
			<path id="Fill-185" class="st3" d="M187.7,351.1c0.3-2.2,0.3-4.3,1.4-6.2c2.4-3.9,5.7-2.9,9-1.2c3.3,1.7,6.4,2.8,10,1.1
				c5.6-2.5,8.3-11.3,2.9-15.4c-1.7-1.3-3.5,0.9-3.2,2.6c0.3,2.4,1.5,5-0.5,7c-2.6,2.7-5.7,0.4-8.3-0.8c-2.8-1.3-5.8-1.6-8.7-0.4
				c-5,2.1-8.6,9.1-4.7,13.9C186.3,352.3,187.6,352,187.7,351.1"/>
			<path id="Fill-187" class="st1" d="M225,270.8c-4.1,3.8-5.6,9.8-1.7,14.4c3.7,4.3,10.7,5.2,15.3,1.8c11-8.3-0.5-23.6-12.4-20.5
				c-2.2,0.6-1.7,3.7,0.5,3.8c3.5,0.2,7.2,0.3,10,2.7c3,2.6,3.1,6.9,0.6,9.8c-6.5,7.8-17.8-3.7-10.9-10.6
				C227.2,271.2,225.9,269.9,225,270.8"/>
			<path id="Fill-189" class="st2" d="M62,263.8c-4.1,3.8-5.6,9.8-1.7,14.3c3.7,4.3,10.7,5.2,15.3,1.8c11-8.3-0.5-23.6-12.4-20.5
				c-2.2,0.6-1.7,3.7,0.5,3.8c3.5,0.2,7.2,0.3,10,2.7c3,2.6,3,6.9,0.6,9.8c-6.5,7.8-17.8-3.7-10.9-10.6
				C64.2,264.2,62.9,262.9,62,263.8"/>
			<path id="Fill-191" class="st1" d="M7.1,357c2.6,9.9,5.4,19.7,8.4,29.5c0.7,2.4,2.9,3.1,4.8,1.7c7.7-5.4,15.5-10.7,22.8-16.7
				c1.4-1.2,1.1-3.5-0.3-4.5c-8.6-6.1-20.1-15-31-15.1c-2.8,0-4.7,4-1.9,5.7c4.4,2.6,9.6,3.5,14.3,5.6c5.4,2.3,10.8,5,15.5,8.6
				c0.1-1.6,0.2-3.3,0.3-4.9c-8.2,5.2-15.9,11-23.7,16.8l4.6,0.9c-3.3-9.7-6.7-19.3-10.4-28.9C9.8,353.8,6.5,354.9,7.1,357"/>
			<path id="Fill-193" class="st4" d="M236.9,315.7c6.9,0.9,14.2,1.5,21.2,1.2c2.6-0.1,2.5-3.3,0-3.5c-6.8-0.6-14-0.5-20.8-0.1
				C235.9,313.5,235.4,315.5,236.9,315.7"/>
			<path id="Fill-195" class="st4" d="M4.9,315.7c6.9,0.9,14.2,1.5,21.2,1.2c2.6-0.1,2.5-3.3,0-3.5c-6.8-0.6-14-0.5-20.8-0.1
				C3.9,313.5,3.4,315.5,4.9,315.7"/>
			<path id="Fill-197" class="st5" d="M50.9,304.4c-0.1-0.1-0.2-0.2-0.3-0.3c-1.5-1.3-4-1.6-5.4,0c-1.5,1.6-1.4,3.8,0,5.4l0.3,0.3
				c1.3,1.5,4.1,1.5,5.5,0C52.2,308.4,52.5,305.8,50.9,304.4"/>
			<path id="Fill-199" class="st5" d="M148.5,338c-0.3,0-0.5-6-1-13.5c-0.5-7.4-0.3-13.6,0-13.5c0.3,0,0.5,6,1,13.5
				C149,331.9,148.8,338,148.5,338"/>
			<polygon id="Fill-201" class="st5" points="189,281.1 207.9,276 209,279.3 190,285 			"/>
			<path id="Fill-203" class="st10" d="M200,280c0,1.1-0.9,2-2,2c-1.1,0-2-0.9-2-2c0-1.1,0.9-2,2-2C199.1,278,200,278.9,200,280"/>
			<path id="Fill-205" class="st5" d="M125.8,230c-0.2,0.1-0.7-0.1-1.2-0.6c-0.5-0.5-0.7-1.1-0.4-1.3c0.2-0.1,0.7,0.1,1.2,0.6
				C125.9,229.2,126.1,229.8,125.8,230"/>
			<path id="Fill-207" class="st5" d="M110.8,232c-0.2,0.1-0.7-0.1-1.2-0.6c-0.5-0.5-0.7-1.1-0.4-1.3c0.2-0.1,0.7,0.1,1.2,0.6
				C110.9,231.2,111.1,231.8,110.8,232"/>
			<polygon id="Fill-209" class="st4" points="94,154.7 94,191.9 69.4,191.9 68.6,206 54.2,191.1 0,191.1 4.8,152 			"/>
			<path id="Fill-211" class="st10" d="M83.8,166.8c-23.8-0.4-47.7-0.5-71.5-0.1c-0.5,0-0.5,0.6,0,0.6c23.8,0.4,47.7,0.3,71.5-0.1
				C84.1,167.2,84.1,166.8,83.8,166.8"/>
			<path id="Fill-213" class="st10" d="M83.8,173.8c-23.8-0.4-47.7-0.5-71.5-0.1c-0.5,0-0.5,0.6,0,0.6c23.8,0.4,47.7,0.3,71.5-0.1
				C84.1,174.2,84.1,173.8,83.8,173.8"/>
			<path id="Fill-215" class="st10" d="M82.8,180.8c-14.4-0.4-29.1-0.5-43.5-0.1c-0.4,0-0.4,0.6,0,0.6c14.4,0.4,29.1,0.3,43.5-0.1
				C83.1,181.2,83.1,180.8,82.8,180.8"/>
		</g>
		<path class="st20" d="M264.4,299.9c0,0-4.9-4.7-9.5,0.3c-3.2,3.4-0.9,8-0.9,8s-4.6-5,0.1-9.9C258.8,293.6,264.6,299.3,264.4,299.9
			z"/>
		<path class="st20" d="M264.3,298.1c0,0,1.2-5.6,6.7-3.5c0,0,3,1.3,4.1,5.3c0.1-0.6,0.3-2-0.3-3.6c-1.1-2.7-3.8-3.5-4.2-3.7
			c-0.1,0-2.9-0.7-4.9,1.3C264,295.6,264.2,297.8,264.3,298.1z"/>
		<path class="st20" d="M276.3,298.4c0,0,5,2.1,3.7,7.2c-1.3,5.1-5.9,4.4-5.9,4.4c0.4,0.1,2.5,0.6,4.6-0.6c2.2-1.3,2.7-3.5,2.8-3.8
			c0-0.2,0.5-3.6-1.9-5.7C278.3,298.6,276.9,298.4,276.3,298.4z"/>
		<path class="st20" d="M254.8,296.9c0,0-7.3,4.2-2.5,11.4c0,0,2.4,4.2,8.3,2.8c0,0-5.8,3.7-10.2-3.1
			C250.5,307.9,246.4,300.2,254.8,296.9z"/>
		<path class="st21" d="M265.2,310.5c0,0,5.5-1.9,9.1,1.3C274.3,311.8,270.3,306.6,265.2,310.5z"/>
		<path class="st21" d="M254.7,306.6c0,0,3,5.2,8.4,3c0,0,6.4-2.6,9.3-0.9c0,0-3.1-3.2-9.3-1.1C257.1,309.6,254.7,306.6,254.7,306.6
			z"/>
		<path class="st20" d="M250,306c0,0-1.1,0-1.5,3.8c0,0-1.2,1,0,2.2c0,0-0.2,3-2.4,4.9c0,0,1.5,1.5,2.2,1.1c0,0,1.5-0.5,1.8-2.5
			c0,0,0.2-3.3-0.2-3.6c0,0,1.2-1-0.1-2.2c0,0,0.3-2.9,1.4-3.2"/>
	</g>
</g>
</svg>
